<svg height="200" viewBox="0 0 200 200" width="200" xmlns="http://www.w3.org/2000/svg" xmlns:xlink="http://www.w3.org/1999/xlink"><linearGradient id="a" x1="0%" x2="100%" y1="0%" y2="100%"><stop offset="0" stop-color="#dd0031"/><stop offset="1" stop-color="#c3002f"/></linearGradient><linearGradient id="b" x1="0%" x2="100%" y1="0%" y2="100%"><stop offset="0" stop-color="#4b32c3"/><stop offset="1" stop-color="#3b28a3"/></linearGradient><circle cx="100" cy="100" fill="url(#a)" r="95"/><path d="m100 25 60 25-5 75-55 50-55-50-5-75z" fill="#fff" opacity=".95"/><path d="m100 45 30 20v40l-30 20-30-20v-40z" fill="url(#b)"/><path d="m100 55-15 40h10l3-7h4l3 7h10zm-4 23 4-10 4 10z" fill="#fff"/><g fill="url(#b)"><rect height="3" rx="1.5" width="50" x="75" y="135"/><rect height="2" rx="1" width="40" x="80" y="142"/><rect height="2" rx="1" width="30" x="85" y="148"/></g></svg>